<svg xmlns="http://www.w3.org/2000/svg" xmlns:xlink="http://www.w3.org/1999/xlink" width="497" zoomAndPan="magnify" viewBox="0 0 372.75 452.999989" height="604" preserveAspectRatio="xMidYMid meet" version="1.0"><defs><g/><clipPath id="34e4a34e29"><path d="M 0 0.152344 L 371.75 0.152344 L 371.75 452.773438 L 0 452.773438 Z M 0 0.152344 " clip-rule="nonzero"/></clipPath><clipPath id="4c3e7922d2"><path d="M 0 0.152344 L 138 0.152344 L 138 452.773438 L 0 452.773438 Z M 0 0.152344 " clip-rule="nonzero"/></clipPath><clipPath id="00392aa1af"><path d="M 5.175781 169.414062 L 371.75 169.414062 L 371.75 452.777344 L 5.175781 452.777344 Z M 5.175781 169.414062 " clip-rule="nonzero"/></clipPath><clipPath id="5b1a8520c3"><path d="M 232.015625 383 L 371.75 383 L 371.75 452.773438 L 232.015625 452.773438 Z M 232.015625 383 " clip-rule="nonzero"/></clipPath></defs><g clip-path="url(#34e4a34e29)"><path fill="#f5fdff" d="M -228.796875 452.777344 L -236.09375 398.308594 C -236.09375 398.308594 -215.644531 353.273438 -199.03125 350.664062 C -182.417969 348.054688 -122.199219 343.984375 -122.199219 343.984375 C -122.199219 343.984375 -91.050781 277.183594 -74.4375 264.863281 C -57.824219 252.546875 -32.90625 252.546875 -32.90625 252.546875 L -1.757812 155.351562 L 48.082031 137.007812 L 137.371094 -8.914062 C 137.371094 -8.914062 205.902344 55.894531 212.128906 61.828125 C 218.359375 67.761719 257.8125 218.144531 259.890625 216.660156 C 261.964844 215.175781 282.730469 297.011719 295.191406 314.226562 C 307.652344 331.445312 355.410156 374.921875 361.644531 383.289062 C 367.875 391.65625 372.023438 452.777344 372.023438 452.777344 L -228.796875 452.777344 " fill-opacity="1" fill-rule="nonzero"/></g><g clip-path="url(#4c3e7922d2)"><path fill="#a6e6f2" d="M 97.917969 383.109375 L 31.46875 378.441406 C 31.46875 378.441406 -3.832031 307.324219 -3.832031 303.28125 C -3.832031 299.242188 70.921875 236.59375 70.921875 236.59375 L 119.722656 169.867188 L 102.070312 101.671875 L 137.371094 -8.914062 L 48.082031 137.007812 L -1.757812 155.351562 L -32.90625 252.546875 C -32.90625 252.546875 -57.824219 252.546875 -74.4375 264.863281 C -91.050781 277.183594 -122.199219 343.984375 -122.199219 343.984375 C -122.199219 343.984375 -182.417969 348.054688 -199.03125 350.664062 C -215.644531 353.273438 -236.09375 398.308594 -236.09375 398.308594 L -228.796875 452.777344 L 39.773438 452.777344 L 31.46875 422.582031 L 97.917969 383.109375 " fill-opacity="1" fill-rule="nonzero"/><path fill="#79d0df" d="M -26.675781 383.109375 L -31.445312 452.777344 L 39.773438 452.777344 L 31.46875 422.582031 L 97.917969 383.109375 L 31.46875 378.441406 C 31.46875 378.441406 -3.832031 307.324219 -3.832031 303.28125 C -3.832031 299.242188 70.921875 236.59375 70.921875 236.59375 L 119.722656 169.867188 L 102.070312 101.671875 L 137.371094 -8.914062 L 48.082031 137.007812 L 58.460938 169.867188 L 17.96875 253.582031 L -45.363281 290.125 L -26.675781 383.109375 " fill-opacity="1" fill-rule="nonzero"/></g><path fill="#79d0df" d="M -78.285156 268.398438 C -75.035156 275.839844 -70.679688 282.253906 -65.09375 283.449219 C -50.558594 286.5625 -45.363281 290.125 -45.363281 290.125 L 17.96875 253.582031 L -32.90625 252.546875 C -32.90625 252.546875 -57.824219 252.546875 -74.4375 264.863281 C -75.644531 265.757812 -76.941406 266.972656 -78.285156 268.398438 " fill-opacity="1" fill-rule="nonzero"/><path fill="#79d0df" d="M 48.082031 137.007812 L 58.460938 169.867188 L -1.757812 155.351562 Z M 48.082031 137.007812 " fill-opacity="1" fill-rule="nonzero"/><g clip-path="url(#00392aa1af)"><path fill="#a6e6f2" d="M 232.375 383.289062 C 207.457031 370.652344 187.210938 343.984375 187.210938 343.984375 L 209.015625 263.207031 L 180.980469 169.867188 C 180.980469 169.867188 177.867188 247.078125 180.980469 253.582031 C 184.09375 260.09375 157.617188 336 156.0625 343.984375 C 154.503906 351.964844 163.847656 400.777344 156.0625 402.84375 C 148.273438 404.910156 31.46875 422.582031 31.46875 422.582031 C 31.46875 422.582031 13.492188 434.464844 5.210938 452.777344 L 372.023438 452.777344 C 372.023438 452.777344 367.875 391.65625 361.644531 383.289062 C 361.644531 383.289062 339.839844 397.664062 327.378906 402.84375 C 314.917969 408.023438 257.292969 395.925781 232.375 383.289062 " fill-opacity="1" fill-rule="nonzero"/></g><g clip-path="url(#5b1a8520c3)"><path fill="#79d0df" d="M 342.953125 424.503906 C 342.953125 424.503906 300.902344 432.9375 291.558594 432.9375 C 282.214844 432.9375 232.375 408.113281 232.375 408.113281 L 249.507812 440.722656 L 281.648438 452.777344 L 372.023438 452.777344 C 372.023438 452.777344 367.875 391.65625 361.644531 383.289062 L 342.953125 424.503906 " fill-opacity="1" fill-rule="nonzero"/></g><path fill="#79d0df" d="M 215.433594 69.007812 L 180.980469 169.867188 L 209.015625 263.207031 L 187.210938 343.984375 L 216.90625 373.414062 L 204.34375 335.886719 L 232.375 253.582031 L 194.996094 163.542969 L 215.433594 69.007812 " fill-opacity="1" fill-rule="nonzero"/><g fill="#f5fdff" fill-opacity="1"><g transform="translate(236.489978, 295.997911)"><g><path d="M 2.75 0.15625 C 2.164062 0.15625 1.6875 -0.015625 1.3125 -0.359375 C 0.945312 -0.703125 0.765625 -1.125 0.765625 -1.625 C 0.765625 -2.132812 0.945312 -2.5625 1.3125 -2.90625 C 1.6875 -3.257812 2.164062 -3.4375 2.75 -3.4375 C 3.3125 -3.4375 3.773438 -3.257812 4.140625 -2.90625 C 4.515625 -2.5625 4.703125 -2.132812 4.703125 -1.625 C 4.703125 -1.125 4.515625 -0.703125 4.140625 -0.359375 C 3.773438 -0.015625 3.3125 0.15625 2.75 0.15625 Z M 2.75 0.15625 "/></g></g></g></svg>